
<svg version="1.1" id="Layer_1"  x="0px" y="0px"
	 viewBox="0 0 511.999 511.999" style="enable-background:new 0 0 511.999 511.999;" >
<g>
	<g>
		<g>
			<path d="M158.869,273.812h-5.405c-3.98,0-7.207,3.226-7.207,7.207s3.226,7.207,7.207,7.207h5.405
				c2.318,0,4.204,1.886,4.204,4.204s-1.886,4.204-4.204,4.204H97.608c-2.318,0-4.204-1.886-4.204-4.204s1.886-4.204,4.204-4.204
				h5.405c3.98,0,7.207-3.228,7.207-7.207c0-3.981-3.228-7.207-7.207-7.207h-5.405c-10.267,0-18.619,8.352-18.619,18.619
				c0,10.265,8.352,18.619,18.619,18.619h61.261c10.267,0,18.619-8.353,18.619-18.619S169.136,273.812,158.869,273.812z"/>
			<path d="M97.608,473.413h61.261c10.267,0,18.619-8.352,18.619-18.619c0-10.267-8.352-18.619-18.619-18.619h-5.405
				c-3.98,0-7.207,3.226-7.207,7.207s3.228,7.207,7.207,7.207h5.405c2.318,0,4.204,1.886,4.204,4.204s-1.886,4.204-4.204,4.204
				H97.608c-2.318,0-4.204-1.886-4.204-4.204s1.886-4.204,4.204-4.204h5.405c3.98,0,7.207-3.226,7.207-7.207
				s-3.228-7.207-7.207-7.207h-5.405c-10.267,0-18.619,8.352-18.619,18.619C78.99,465.061,87.342,473.413,97.608,473.413z"/>
			<path d="M97.608,392.23h61.261c10.267,0,18.619-8.352,18.619-18.619c0-10.267-8.352-18.619-18.619-18.619h-5.405
				c-3.98,0-7.207,3.226-7.207,7.207s3.228,7.207,7.207,7.207h5.405c2.318,0,4.204,1.886,4.204,4.204s-1.886,4.204-4.204,4.204
				H97.608c-2.318,0-4.204-1.886-4.204-4.204s1.886-4.204,4.204-4.204h5.405c3.98,0,7.207-3.226,7.207-7.207
				s-3.228-7.207-7.207-7.207h-5.405c-10.267,0-18.619,8.352-18.619,18.619C78.99,383.878,87.342,392.23,97.608,392.23z"/>
			<path d="M504.792,203.194h-94.15V183.17c0-3.981-3.228-7.207-7.207-7.207h-69.946c-7.45,0-14.177,3.136-18.944,8.153
				c-4.77-5.016-11.499-8.153-18.954-8.153h-69.934c-3.98,0-7.207,3.226-7.207,7.207v20.024h-55.255v-16.637
				c0-3.981-3.228-7.207-7.207-7.207h-43.202l-64.833-64.835c1.989-3.632,3.123-7.797,3.123-12.222s-1.134-8.59-3.123-12.222
				l51.822-51.822l2.491,2.491c-20.566,25.655-18.971,63.33,4.807,87.106c1.407,1.408,3.25,2.11,5.095,2.11
				c1.844,0,3.689-0.704,5.095-2.11l23.383-23.379c4.251,2.984,9.366,4.661,14.657,4.661c14.089,0,25.549-11.456,25.549-25.537
				c0-5.302-1.676-10.419-4.656-14.669l23.373-23.369c2.814-2.814,2.816-7.377,0.002-10.191
				c-12.353-12.36-28.778-19.166-46.251-19.166c-15.045,0-29.307,5.058-40.866,14.352L93.424,11.517
				c-2.813-2.814-7.378-2.814-10.192,0s-2.814,7.378,0.001,10.192l6.348,6.349L37.76,79.879c-3.632-1.989-7.797-3.123-12.222-3.123
				C11.456,76.756,0,88.212,0,102.294s11.456,25.537,25.537,25.537c4.425,0,8.59-1.134,12.222-3.123l54.643,54.643H67.231
				c-3.981,0-7.207,3.226-7.207,7.207v16.637H11.748c-3.98,0-7.207,3.226-7.207,7.207v41.441c0,3.98,3.228,7.207,7.207,7.207H38.15
				v73.97v81.189v81.177c0,3.981,3.228,7.207,7.207,7.207h165.765c3.981,0,7.207-3.226,7.207-7.207v-81.177V333.02l-0.006-0.109
				h205.483v162.475c0,3.981,3.228,7.207,7.207,7.207h34.138c3.98,0,7.207-3.226,7.207-7.207V259.05h32.432
				c3.98,0,7.207-3.226,7.207-7.207v-41.441C512,206.422,508.772,203.194,504.792,203.194z M155.303,94.714
				c-1.441,0-2.832-0.27-4.119-0.783l14.473-14.471c0.51,1.289,0.781,2.683,0.781,4.131
				C166.438,89.724,161.442,94.714,155.303,94.714z M117.266,45.55c9.63-9.635,22.435-14.942,36.055-14.942
				c11.188,0.001,21.826,3.581,30.605,10.201l-71.399,71.39C97.536,92.241,99.114,63.701,117.266,45.55z M25.537,113.417
				c-6.132,0-11.123-4.99-11.123-11.123s4.99-11.123,11.123-11.123c6.132,0,11.123,4.99,11.123,11.123S31.67,113.417,25.537,113.417
				z M321.753,202.113c0-6.471,5.265-11.736,11.736-11.736h62.739v12.817h-74.474V202.113z M232.866,190.377h62.727
				c6.478,0,11.748,5.265,11.748,11.736v1.081h-74.474V190.377z M74.438,193.765h74.343v9.429H74.438V193.765z M203.915,488.179
				H52.564v-66.763h151.351V488.179z M203.915,407.002H52.564v-66.775h151.351V407.002z M52.564,325.813V259.05h151.351v66.653
				l0.005,0.109H52.564z M423.807,318.496H218.33V259.05h205.477V318.496z M457.945,488.179h-19.724V259.05h19.724V488.179z
				 M497.584,244.636H18.955v-27.027h478.63V244.636z"/>
		</g>
	</g>
</g>

</svg>
